<?xml version="1.0" encoding="utf-8"?>
<!-- Generator: Adobe Illustrator 24.0.1, SVG Export Plug-In . SVG Version: 6.00 Build 0)  -->
<svg version="1.1" id="Слой_1" xmlns="http://www.w3.org/2000/svg" xmlns:xlink="http://www.w3.org/1999/xlink" x="0px" y="0px"
	 viewBox="0 0 512 512" enable-background="new 0 0 512 512" xml:space="preserve">
<g>
	<path d="M28.1,132.1c16.3-3.7,39.5-5.7,61.7-5.7c34.4,0,56.5,6.9,72,22.3c12.6,12.2,19.6,30.9,19.6,52c0,36.2-20.7,60.1-46.9,69.9
		v1.2c19.2,7.3,30.7,26.8,36.6,55.2c8.1,38.2,14,64.6,19.2,75.1H157c-4.1-7.7-9.6-31.3-16.6-65.4c-7.4-37.8-20.7-52-49.9-53.2H60.2
		v118.6H28.1V132.1z M60.2,256.8h32.9c34.4,0,56.2-20.7,56.2-52c0-35.3-23.3-50.8-57.3-51.2c-15.5,0-26.6,1.6-31.8,3.3V256.8z"/>
	<path d="M271.9,149.2v56.5h46.5v27.2h-46.5v106c0,24.4,6.3,38.2,24.4,38.2c8.5,0,14.8-1.2,18.8-2.4l1.5,26.8
		c-6.3,2.8-16.3,4.9-28.8,4.9c-15.1,0-27.3-5.3-35.1-15c-9.2-10.6-12.6-28-12.6-51.2V232.8h-27.7v-27.2h27.7v-47.1L271.9,149.2z"/>
	<path d="M403.4,158.5h-75.7v-30.1H512v30.1h-76.1v243.7h-32.5V158.5z"/>
</g>
</svg>
