<svg width="10" height="5" viewBox="0 0 10 5" fill="none" xmlns="http://www.w3.org/2000/svg">
<mask id="path-1-inside-1_2638_2652" fill="white">
<path d="M9.47329 0.364191C9.41132 0.301705 9.33758 0.252109 9.25634 0.218263C9.1751 0.184417 9.08797 0.166992 8.99996 0.166992C8.91195 0.166992 8.82481 0.184417 8.74357 0.218263C8.66233 0.252109 8.5886 0.301705 8.52663 0.364191L5.47329 3.41752C5.41132 3.48 5.33758 3.5296 5.25634 3.56345C5.1751 3.59729 5.08797 3.61472 4.99996 3.61472C4.91195 3.61472 4.82481 3.59729 4.74357 3.56345C4.66233 3.5296 4.5886 3.48 4.52663 3.41752L1.47329 0.364191C1.41132 0.301705 1.33758 0.252109 1.25634 0.218263C1.1751 0.184417 1.08797 0.166992 0.999959 0.166992C0.911951 0.166992 0.824814 0.184417 0.743574 0.218263C0.662335 0.252109 0.588601 0.301705 0.526625 0.364191C0.402458 0.489099 0.332764 0.658066 0.332764 0.83419C0.332764 1.01031 0.402458 1.17928 0.526625 1.30419L3.58663 4.36418C3.96163 4.73872 4.46996 4.94909 4.99996 4.94909C5.52996 4.94909 6.03829 4.73872 6.41329 4.36418L9.47329 1.30419C9.59746 1.17928 9.66715 1.01031 9.66715 0.83419C9.66715 0.658066 9.59746 0.489099 9.47329 0.364191Z"/>
</mask>
<path d="M9.47329 0.364191C9.41132 0.301705 9.33758 0.252109 9.25634 0.218263C9.1751 0.184417 9.08797 0.166992 8.99996 0.166992C8.91195 0.166992 8.82481 0.184417 8.74357 0.218263C8.66233 0.252109 8.5886 0.301705 8.52663 0.364191L5.47329 3.41752C5.41132 3.48 5.33758 3.5296 5.25634 3.56345C5.1751 3.59729 5.08797 3.61472 4.99996 3.61472C4.91195 3.61472 4.82481 3.59729 4.74357 3.56345C4.66233 3.5296 4.5886 3.48 4.52663 3.41752L1.47329 0.364191C1.41132 0.301705 1.33758 0.252109 1.25634 0.218263C1.1751 0.184417 1.08797 0.166992 0.999959 0.166992C0.911951 0.166992 0.824814 0.184417 0.743574 0.218263C0.662335 0.252109 0.588601 0.301705 0.526625 0.364191C0.402458 0.489099 0.332764 0.658066 0.332764 0.83419C0.332764 1.01031 0.402458 1.17928 0.526625 1.30419L3.58663 4.36418C3.96163 4.73872 4.46996 4.94909 4.99996 4.94909C5.52996 4.94909 6.03829 4.73872 6.41329 4.36418L9.47329 1.30419C9.59746 1.17928 9.66715 1.01031 9.66715 0.83419C9.66715 0.658066 9.59746 0.489099 9.47329 0.364191Z" fill="#ffffff"/>
<path d="M8.52663 0.364191L23.6116 15.4492L23.6425 15.4182L23.6733 15.3872L8.52663 0.364191ZM5.47329 3.41752L-9.61164 -11.6674L-9.64256 -11.6365L-9.67336 -11.6055L5.47329 3.41752ZM4.52663 3.41752L19.6733 -11.6055L19.6425 -11.6365L19.6116 -11.6674L4.52663 3.41752ZM1.47329 0.364191L-13.6734 15.3872L-13.6426 15.4182L-13.6116 15.4492L1.47329 0.364191ZM0.526625 0.364191L15.6564 15.4042L15.6648 15.3957L15.6733 15.3872L0.526625 0.364191ZM0.332764 0.83419H-21.0006H0.332764ZM0.526625 1.30419L-14.6031 16.3442L-14.5807 16.3667L-14.5583 16.3891L0.526625 1.30419ZM3.58663 4.36418L-11.4983 19.4491L-11.4889 19.4585L3.58663 4.36418ZM4.99996 4.94909V26.2824V4.94909ZM6.41329 4.36418L21.4888 19.4585L21.4982 19.4491L6.41329 4.36418ZM9.47329 1.30419L24.5582 16.3891L24.5807 16.3667L24.603 16.3442L9.47329 1.30419ZM24.6199 -14.6588C22.5748 -16.7208 20.1416 -18.3575 17.4606 -19.4744L1.05206 19.9109C-1.46645 18.8617 -3.75219 17.3242 -5.67336 15.3872L24.6199 -14.6588ZM17.4606 -19.4744C14.7797 -20.5913 11.9042 -21.1663 8.99996 -21.1663V21.5003C6.27175 21.5003 3.57051 20.9601 1.05206 19.9109L17.4606 -19.4744ZM8.99996 -21.1663C6.09573 -21.1663 3.22022 -20.5913 0.539287 -19.4744L16.9479 19.9109C14.4294 20.9601 11.7282 21.5003 8.99996 21.5003V-21.1663ZM0.539287 -19.4744C-2.1417 -18.3575 -4.5749 -16.7208 -6.62003 -14.6588L23.6733 15.3872C21.7521 17.3242 19.4664 18.8617 16.9479 19.9109L0.539287 -19.4744ZM-6.5583 -14.7208L-9.61164 -11.6674L20.5582 18.5025L23.6116 15.4492L-6.5583 -14.7208ZM-9.67336 -11.6055C-7.75211 -13.5425 -5.46635 -15.08 -2.94794 -16.1292L13.4606 23.2561C16.1415 22.1392 18.5747 20.5025 20.6199 18.4405L-9.67336 -11.6055ZM-2.94794 -16.1292C-0.429543 -17.1784 2.2717 -17.7186 4.99996 -17.7186V24.948C7.90424 24.948 10.7797 24.373 13.4606 23.2561L-2.94794 -16.1292ZM4.99996 -17.7186C7.72822 -17.7186 10.4295 -17.1784 12.9479 -16.1292L-3.46071 23.2561C-0.779833 24.373 2.09568 24.948 4.99996 24.948V-17.7186ZM12.9479 -16.1292C15.4663 -15.08 17.752 -13.5425 19.6733 -11.6055L-10.62 18.4405C-8.57483 20.5025 -6.1416 22.1392 -3.46071 23.2561L12.9479 -16.1292ZM19.6116 -11.6674L16.5582 -14.7208L-13.6116 15.4492L-10.5583 18.5025L19.6116 -11.6674ZM16.6199 -14.6588C14.5748 -16.7208 12.1416 -18.3575 9.46063 -19.4744L-6.94794 19.9109C-9.46639 18.8617 -11.7521 17.3242 -13.6734 15.3872L16.6199 -14.6588ZM9.46063 -19.4744C6.7797 -20.5913 3.90418 -21.1663 0.999959 -21.1663V21.5003C-1.72825 21.5003 -4.42949 20.9601 -6.94794 19.9109L9.46063 -19.4744ZM0.999959 -21.1663C-1.90427 -21.1663 -4.77979 -20.5913 -7.46071 -19.4744L8.94786 19.9109C6.42941 20.9601 3.72817 21.5003 0.999959 21.5003V-21.1663ZM-7.46071 -19.4744C-10.1416 -18.3575 -12.5749 -16.7208 -14.62 -14.6588L15.6733 15.3872C13.7521 17.3242 11.4663 18.8617 8.94786 19.9109L-7.46071 -19.4744ZM-14.6031 -14.6758C-18.7006 -10.5538 -21.0006 -4.9779 -21.0006 0.83419H21.6661C21.6661 6.29403 19.5056 11.532 15.6564 15.4042L-14.6031 -14.6758ZM-21.0006 0.83419C-21.0006 6.64628 -18.7006 12.2222 -14.6031 16.3442L15.6564 -13.7358C19.5056 -9.86366 21.6661 -4.62565 21.6661 0.83419H-21.0006ZM-14.5583 16.3891L-11.4983 19.4491L18.6716 -10.7208L15.6116 -13.7808L-14.5583 16.3891ZM-11.4889 19.4585C-7.1139 23.8281 -1.18339 26.2824 4.99996 26.2824V-16.3842C10.1233 -16.3842 15.0372 -14.3507 18.6622 -10.7302L-11.4889 19.4585ZM4.99996 26.2824C11.1833 26.2824 17.1138 23.8281 21.4888 19.4585L-8.66225 -10.7302C-5.03724 -14.3507 -0.123383 -16.3842 4.99996 -16.3842V26.2824ZM21.4982 19.4491L24.5582 16.3891L-5.61164 -13.7808L-8.67164 -10.7208L21.4982 19.4491ZM24.603 16.3442C28.7005 12.2223 31.0005 6.64638 31.0005 0.83419H-11.6662C-11.6662 -4.62576 -9.50558 -9.86374 -5.65645 -13.7358L24.603 16.3442ZM31.0005 0.83419C31.0005 -4.978 28.7005 -10.5539 24.603 -14.6758L-5.65645 15.4042C-9.50558 11.5321 -11.6662 6.29414 -11.6662 0.83419H31.0005Z" fill="#ffffff" mask="url(#path-1-inside-1_2638_2652)"/>
</svg>
