<svg width="15" height="14" viewBox="0 0 15 14" fill="none" xmlns="http://www.w3.org/2000/svg">
<path d="M8.80343 3.22219L11.2558 5.67457M10.6427 1.3829C10.8037 1.22188 10.9949 1.09415 11.2053 1.007C11.4157 0.919854 11.6412 0.875 11.8689 0.875C12.0966 0.875 12.3221 0.919854 12.5325 1.007C12.7429 1.09415 12.9341 1.22188 13.0951 1.3829C13.2561 1.54393 13.3839 1.7351 13.471 1.94549C13.5581 2.15588 13.603 2.38137 13.603 2.60909C13.603 2.83682 13.5581 3.06231 13.471 3.2727C13.3839 3.48309 13.2561 3.67426 13.0951 3.83529L4.81831 12.1121L1.44629 13.0317L2.36593 9.65969L10.6427 1.3829Z" stroke="#57606A" stroke-width="1.22619" stroke-linejoin="round"/>
</svg>
