<svg width="10" height="11" viewBox="0 0 10 11" fill="none" xmlns="http://www.w3.org/2000/svg">
<g clip-path="url(#clip0_240_8951)">
<path fill-rule="evenodd" clip-rule="evenodd" d="M1.12828 5.25814C1.38099 4.87795 1.88886 4.18618 2.57737 3.59405C3.27009 2.99829 4.09801 2.54375 4.99999 2.54375C5.90198 2.54375 6.72993 2.99829 7.42261 3.59405C8.11112 4.18618 8.61901 4.87795 8.87172 5.25814C8.88936 5.28469 8.88936 5.31531 8.87172 5.34186C8.61901 5.72205 8.11112 6.41382 7.42261 7.00594C6.72993 7.60171 5.90198 8.05625 4.99999 8.05625C4.09801 8.05625 3.27009 7.60171 2.57737 7.00594C1.88886 6.41382 1.38099 5.72205 1.12828 5.34186C1.11063 5.31531 1.11063 5.28469 1.12828 5.25814ZM4.99999 1.625C3.78641 1.625 2.75162 2.2324 1.97829 2.89747C1.20076 3.56617 0.639266 4.33413 0.363139 4.74954C0.140672 5.08422 0.140673 5.51578 0.363139 5.85046C0.639266 6.26587 1.20076 7.0338 1.97829 7.70253C2.75162 8.36758 3.78641 8.975 4.99999 8.975C6.21358 8.975 7.24835 8.36758 8.0217 7.70253C8.7992 7.0338 9.36074 6.26587 9.63686 5.85046C9.85932 5.51578 9.85932 5.08422 9.63686 4.74954C9.36074 4.33413 8.7992 3.56617 8.0217 2.89747C7.24835 2.2324 6.21358 1.625 4.99999 1.625ZM4.99999 6.525C5.67654 6.525 6.22499 5.97655 6.22499 5.3C6.22499 4.62345 5.67654 4.075 4.99999 4.075C4.32344 4.075 3.77499 4.62345 3.77499 5.3C3.77499 5.97655 4.32344 6.525 4.99999 6.525Z" fill="#24292F"/>
</g>
<defs>
<clipPath id="clip0_240_8951">
<rect width="9.8" height="9.8" fill="white" transform="translate(0.100098 0.399902)"/>
</clipPath>
</defs>
</svg>
