<svg width="26" height="26" viewBox="0 0 26 26" fill="none" xmlns="http://www.w3.org/2000/svg">
<path d="M13 1C6.37346 1 1 6.5085 1 13.3038C1 18.74 4.43837 23.3519 9.20639 24.9789C9.80609 25.0927 10.0263 24.712 10.0263 24.387C10.0263 24.0936 10.0151 23.1243 10.01 22.0962C6.67152 22.8405 5.96707 20.6445 5.96707 20.6445C5.42121 19.2224 4.6347 18.8443 4.6347 18.8443C3.54598 18.0806 4.71676 18.0963 4.71676 18.0963C5.9218 18.1831 6.55632 19.3642 6.55632 19.3642C7.62659 21.2452 9.36356 20.7014 10.0483 20.3871C10.156 19.5918 10.4671 19.0491 10.8102 18.7418C8.14488 18.4306 5.34291 17.3756 5.34291 12.6612C5.34291 11.318 5.81169 10.2203 6.57938 9.35871C6.45477 9.04876 6.04406 7.7974 6.69561 6.10263C6.69561 6.10263 7.70329 5.77194 9.99648 7.36384C10.9536 7.09114 11.9802 6.9545 13 6.94987C14.0199 6.9545 15.0472 7.09114 16.0062 7.36384C18.2967 5.77194 19.303 6.10263 19.303 6.10263C19.9561 7.7974 19.5452 9.04876 19.4206 9.35871C20.19 10.2203 20.6556 11.3179 20.6556 12.6612C20.6556 17.3868 17.8483 18.4274 15.1763 18.732C15.6066 19.1138 15.9902 19.8626 15.9902 21.0105C15.9902 22.6567 15.9762 23.9817 15.9762 24.387C15.9762 24.7144 16.1922 25.098 16.8006 24.9772C21.566 23.3485 25 18.7382 25 13.3038C25 6.5085 19.6273 1 13 1Z" fill="#24292F"/>
<path d="M5.49426 18.527C5.46791 18.5881 5.37398 18.6064 5.28862 18.5645C5.20156 18.5244 5.15262 18.441 5.18086 18.3796C5.20674 18.3167 5.30066 18.2992 5.38753 18.3414C5.47478 18.3815 5.52447 18.4656 5.49426 18.527ZM6.08454 19.067C6.02732 19.1214 5.91542 19.0961 5.83947 19.0102C5.76098 18.9244 5.7463 18.8097 5.80436 18.7544C5.86337 18.7001 5.97189 18.7255 6.05057 18.8114C6.12906 18.8981 6.1443 19.0121 6.08445 19.0671M6.48952 19.7579C6.41592 19.8103 6.29564 19.7612 6.22138 19.6518C6.14788 19.5424 6.14788 19.4112 6.22298 19.3586C6.29752 19.306 6.41592 19.3533 6.49121 19.4619C6.56462 19.5731 6.56462 19.7044 6.48942 19.758M7.17429 20.5582C7.10851 20.6325 6.96846 20.6126 6.86588 20.5111C6.76104 20.4119 6.73177 20.2711 6.79774 20.1967C6.86428 20.1222 7.00517 20.1431 7.10851 20.2438C7.21269 20.3428 7.2445 20.4846 7.17439 20.5582M8.05934 20.8283C8.03045 20.9246 7.89549 20.9685 7.75959 20.9275C7.62388 20.8854 7.53503 20.7725 7.56242 20.6751C7.59065 20.5781 7.72618 20.5325 7.86311 20.5763C7.99864 20.6183 8.08767 20.7303 8.05944 20.8283M9.06674 20.9429C9.07013 21.0444 8.95484 21.1285 8.81216 21.1304C8.66864 21.1336 8.5526 21.0514 8.55109 20.9517C8.55109 20.8492 8.66375 20.7658 8.80718 20.7634C8.94985 20.7605 9.06674 20.842 9.06674 20.9429ZM10.0563 20.904C10.0734 21.003 9.97419 21.1047 9.83255 21.1317C9.69326 21.1578 9.56432 21.0967 9.54654 20.9986C9.52922 20.897 9.6303 20.7954 9.76931 20.7691C9.91123 20.7438 10.0382 20.8033 10.0563 20.904Z" fill="#24292F"/>
</svg>
