<svg width="118" height="37" viewBox="0 0 118 37" fill="none" xmlns="http://www.w3.org/2000/svg">
<path d="M0 4C0 1.79086 1.79086 0 4 0H43V37H4C1.79086 37 0 35.2091 0 33V4Z" fill="#24292F"/>
<path d="M118 4C118 1.79086 116.209 0 114 0H43V37H114C116.209 37 118 35.2091 118 33V4Z" fill="#6D96FF"/>
<path d="M16.7551 20.2497V13.5455H18.9923V25.0001H16.7998V23.0164H16.6805C16.417 23.6279 15.9944 24.1375 15.4127 24.5452C14.836 24.9479 14.1176 25.1492 13.2575 25.1492C12.5218 25.1492 11.8705 24.9877 11.3037 24.6645C10.7419 24.3364 10.2994 23.8517 9.9763 23.2103C9.65811 22.569 9.49902 21.776 9.49902 20.8314V13.5455H11.7288V20.5629C11.7288 21.3435 11.945 21.9649 12.3776 22.4273C12.8101 22.8896 13.3719 23.1208 14.0629 23.1208C14.4806 23.1208 14.8957 23.0164 15.3083 22.8076C15.7259 22.5988 16.0715 22.2831 16.3449 21.8605C16.6233 21.4379 16.76 20.901 16.7551 20.2497Z" fill="white"/>
<path d="M27.119 25.2089C26.0501 25.2089 25.1055 25.0249 24.2852 24.657C23.4698 24.2892 22.831 23.782 22.3686 23.1357C21.9062 22.4894 21.6776 21.7536 21.6825 20.9284C21.6776 20.282 21.8093 19.6879 22.0778 19.146C22.3512 18.5992 22.7216 18.1443 23.1889 17.7813C23.6562 17.4134 24.1783 17.1798 24.755 17.0803V16.9909C23.9943 16.8069 23.3853 16.3992 22.9279 15.7678C22.4705 15.1365 22.2443 14.4106 22.2493 13.5903C22.2443 12.8097 22.4506 12.1137 22.8683 11.5022C23.2908 10.8857 23.87 10.401 24.6058 10.048C25.3416 9.69505 26.1793 9.51855 27.119 9.51855C28.0486 9.51855 28.8789 9.69753 29.6097 10.0555C30.3455 10.4085 30.9247 10.8932 31.3473 11.5097C31.7699 12.1212 31.9837 12.8147 31.9886 13.5903C31.9837 14.4106 31.75 15.1365 31.2876 15.7678C30.8253 16.3992 30.2237 16.8069 29.483 16.9909V17.0803C30.0547 17.1798 30.5692 17.4134 31.0266 17.7813C31.489 18.1443 31.8569 18.5992 32.1303 19.146C32.4087 19.6879 32.5504 20.282 32.5554 20.9284C32.5504 21.7536 32.3168 22.4894 31.8544 23.1357C31.392 23.782 30.7507 24.2892 29.9304 24.657C29.1151 25.0249 28.1779 25.2089 27.119 25.2089ZM27.119 23.3222C27.7504 23.3222 28.2972 23.2178 28.7596 23.009C29.2219 22.7952 29.5799 22.4994 29.8335 22.1215C30.087 21.7387 30.2163 21.2913 30.2212 20.7792C30.2163 20.2472 30.0771 19.7774 29.8036 19.3698C29.5352 18.9621 29.1697 18.6414 28.7074 18.4078C28.245 18.1741 27.7156 18.0573 27.119 18.0573C26.5174 18.0573 25.983 18.1741 25.5156 18.4078C25.0483 18.6414 24.6804 18.9621 24.4119 19.3698C24.1435 19.7774 24.0117 20.2472 24.0167 20.7792C24.0117 21.2913 24.1335 21.7387 24.3821 22.1215C24.6357 22.4994 24.9961 22.7952 25.4634 23.009C25.9308 23.2178 26.4826 23.3222 27.119 23.3222ZM27.119 16.2153C27.6261 16.2153 28.076 16.1134 28.4688 15.9095C28.8615 15.7057 29.1697 15.4223 29.3935 15.0594C29.6222 14.6965 29.739 14.2714 29.744 13.7842C29.739 13.3069 29.6246 12.8893 29.4009 12.5313C29.1822 12.1734 28.8764 11.8975 28.4837 11.7036C28.0909 11.5047 27.636 11.4053 27.119 11.4053C26.592 11.4053 26.1296 11.5047 25.7319 11.7036C25.3391 11.8975 25.0334 12.1734 24.8146 12.5313C24.5959 12.8893 24.489 13.3069 24.494 13.7842C24.489 14.2714 24.5984 14.6965 24.8221 15.0594C25.0458 15.4223 25.354 15.7057 25.7468 15.9095C26.1445 16.1134 26.6019 16.2153 27.119 16.2153Z" fill="white"/>
<path d="M62.298 13.5454L58.1443 25H55.7579L51.5967 13.5454H53.9905L56.8914 22.36H57.0107L59.9042 13.5454H62.298Z" fill="white"/>
<path d="M64.3936 25V13.5454H66.6233V25H64.3936ZM65.5196 11.778C65.1318 11.778 64.7987 11.6487 64.5203 11.3902C64.2469 11.1267 64.1102 10.8135 64.1102 10.4506C64.1102 10.0827 64.2469 9.76949 64.5203 9.51096C64.7987 9.24747 65.1318 9.11572 65.5196 9.11572C65.9074 9.11572 66.238 9.24747 66.5115 9.51096C66.7899 9.76949 66.9291 10.0827 66.9291 10.4506C66.9291 10.8135 66.7899 11.1267 66.5115 11.3902C66.238 11.6487 65.9074 11.778 65.5196 11.778Z" fill="white"/>
<path d="M74.5598 25.2311C73.4313 25.2311 72.4593 24.99 71.644 24.5078C70.8336 24.0206 70.2072 23.337 69.7647 22.457C69.3272 21.572 69.1085 20.5355 69.1085 19.3473C69.1085 18.174 69.3272 17.1399 69.7647 16.245C70.2072 15.3501 70.8237 14.6516 71.6142 14.1495C72.4096 13.6473 73.3393 13.3963 74.4032 13.3963C75.0495 13.3963 75.676 13.5032 76.2825 13.7169C76.889 13.9307 77.4334 14.2663 77.9157 14.7237C78.3979 15.1811 78.7782 15.7752 79.0566 16.506C79.3351 17.2318 79.4743 18.1143 79.4743 19.1534V19.9438H70.3688V18.2734H77.2892C77.2892 17.6867 77.1699 17.1672 76.9313 16.7148C76.6926 16.2574 76.3571 15.897 75.9245 15.6335C75.497 15.37 74.9949 15.2382 74.4181 15.2382C73.7917 15.2382 73.2449 15.3924 72.7775 15.7006C72.3152 16.0039 71.9572 16.4016 71.7037 16.8938C71.4551 17.381 71.3308 17.9105 71.3308 18.4822V19.7872C71.3308 20.5529 71.465 21.2041 71.7335 21.7411C72.0069 22.278 72.3873 22.6882 72.8745 22.9715C73.3617 23.25 73.9309 23.3892 74.5822 23.3892C75.0048 23.3892 75.3901 23.3295 75.7381 23.2102C76.0861 23.0859 76.3869 22.9019 76.6404 22.6583C76.894 22.4147 77.0879 22.1139 77.2221 21.756L79.3326 22.1363C79.1635 22.7578 78.8603 23.3022 78.4228 23.7695C77.9902 24.2318 77.4458 24.5923 76.7896 24.8508C76.1383 25.1044 75.3951 25.2311 74.5598 25.2311Z" fill="white"/>
<path d="M84.411 25L81.0403 13.5454H83.3446L85.5893 21.9573H85.7012L87.9533 13.5454H90.2576L92.4949 21.9201H92.6067L94.8365 13.5454H97.1408L93.7775 25H91.503L89.1763 16.7297H89.0048L86.6781 25H84.411Z" fill="white"/>
<path d="M107.84 16.3419L105.819 16.6999C105.735 16.4414 105.601 16.1953 105.417 15.9616C105.238 15.7279 104.994 15.5365 104.686 15.3874C104.378 15.2382 103.992 15.1637 103.53 15.1637C102.899 15.1637 102.372 15.3054 101.949 15.5887C101.526 15.8671 101.315 16.2276 101.315 16.6701C101.315 17.0529 101.457 17.3611 101.74 17.5948C102.024 17.8284 102.481 18.0198 103.112 18.169L104.932 18.5866C105.986 18.8302 106.771 19.2056 107.288 19.7127C107.805 20.2198 108.064 20.8785 108.064 21.6889C108.064 22.375 107.865 22.9865 107.467 23.5234C107.075 24.0554 106.525 24.473 105.819 24.7762C105.118 25.0795 104.305 25.2311 103.381 25.2311C102.098 25.2311 101.052 24.9577 100.241 24.4108C99.4308 23.859 98.9337 23.076 98.7497 22.0617L100.905 21.7336C101.039 22.2954 101.315 22.7205 101.733 23.0088C102.15 23.2922 102.695 23.4339 103.366 23.4339C104.097 23.4339 104.681 23.2823 105.118 22.979C105.556 22.6708 105.775 22.2954 105.775 21.8529C105.775 21.495 105.64 21.1942 105.372 20.9506C105.108 20.707 104.703 20.523 104.156 20.3987L102.217 19.9737C101.149 19.7301 100.358 19.3423 99.846 18.8103C99.3389 18.2784 99.0853 17.6047 99.0853 16.7894C99.0853 16.1132 99.2742 15.5216 99.6521 15.0145C100.03 14.5074 100.552 14.1122 101.218 13.8288C101.884 13.5404 102.647 13.3963 103.508 13.3963C104.745 13.3963 105.72 13.6647 106.431 14.2017C107.142 14.7336 107.612 15.447 107.84 16.3419Z" fill="white"/>
<path fill-rule="evenodd" clip-rule="evenodd" d="M114 1H4C2.34315 1 1 2.34315 1 4V33C1 34.6569 2.34314 36 4 36H114C115.657 36 117 34.6569 117 33V4C117 2.34315 115.657 1 114 1ZM4 0C1.79086 0 0 1.79086 0 4V33C0 35.2091 1.79086 37 4 37H114C116.209 37 118 35.2091 118 33V4C118 1.79086 116.209 0 114 0H4Z" fill="#E4EAF1"/>
</svg>
