<svg width="11" height="11" viewBox="0 0 11 11" fill="none" xmlns="http://www.w3.org/2000/svg">
<path fill-rule="evenodd" clip-rule="evenodd" d="M0.871094 1.64714C0.871094 1.05489 1.35176 0.574219 1.94401 0.574219H9.6077C10.2 0.574219 10.6806 1.05489 10.6806 1.64714V9.31082C10.6806 9.59538 10.5676 9.86828 10.3664 10.0695C10.1652 10.2707 9.89225 10.3837 9.6077 10.3837H1.94401C1.65946 10.3837 1.38655 10.2707 1.18534 10.0695C0.984133 9.86828 0.871094 9.59538 0.871094 9.31082V1.64714ZM1.79074 4.55934V9.31082C1.79074 9.39543 1.8594 9.4641 1.94401 9.4641H3.93657V4.55934H1.79074ZM3.93657 3.63969H1.79074V1.64714C1.79074 1.60648 1.80688 1.5675 1.83563 1.53875C1.86437 1.51001 1.90336 1.49386 1.94401 1.49386H3.93657V3.63969ZM4.85621 4.55934V9.4641H9.6077C9.64835 9.4641 9.68734 9.44795 9.71608 9.41921C9.74483 9.39046 9.76097 9.35148 9.76097 9.31082V4.55934H4.85621ZM9.76097 3.63969H4.85621V1.49386H9.6077C9.64835 1.49386 9.68734 1.51001 9.71608 1.53875C9.74483 1.5675 9.76097 1.60648 9.76097 1.64714V3.63969Z" fill="#57606A"/>
</svg>
