<svg width="11" height="11" viewBox="0 0 11 11" fill="none" xmlns="http://www.w3.org/2000/svg">
<path fill-rule="evenodd" clip-rule="evenodd" d="M5.3501 0.422363C5.43594 0.422308 5.52009 0.446282 5.59301 0.491574C5.66593 0.536865 5.72472 0.601664 5.76271 0.678637L6.91656 3.0176L9.49769 3.39281C9.58258 3.40514 9.66233 3.44097 9.72793 3.49625C9.79352 3.55153 9.84234 3.62406 9.86888 3.70563C9.89541 3.78721 9.89859 3.87458 9.87807 3.95787C9.85755 4.04116 9.81413 4.11705 9.75274 4.17696L7.88525 5.99785L8.32607 8.56795C8.3406 8.65251 8.33119 8.73946 8.29889 8.81895C8.26659 8.89844 8.21269 8.96731 8.14328 9.01777C8.07388 9.06822 7.99175 9.09826 7.90617 9.10447C7.82059 9.11067 7.73498 9.09281 7.65902 9.0529L5.3501 7.83898L3.04118 9.0529C2.96528 9.09276 2.87974 9.1106 2.79422 9.10441C2.70871 9.09822 2.62663 9.06824 2.55726 9.01787C2.48788 8.9675 2.43397 8.89873 2.40161 8.81933C2.36925 8.73994 2.35974 8.65308 2.37414 8.56856L2.81557 5.99724L0.946851 4.17696C0.885276 4.11707 0.841705 4.04114 0.821076 3.95776C0.800447 3.87438 0.803584 3.78689 0.830133 3.7052C0.856681 3.62351 0.90558 3.55089 0.971287 3.49557C1.03699 3.44025 1.11688 3.40444 1.2019 3.3922L3.78303 3.0176L4.93749 0.678637C4.97549 0.601664 5.03427 0.536865 5.1072 0.491574C5.18012 0.446282 5.26426 0.422308 5.3501 0.422363ZM5.3501 1.92138L4.50096 3.64111C4.46799 3.70788 4.41929 3.76564 4.35906 3.80943C4.29883 3.85321 4.22886 3.88171 4.15518 3.89248L2.25642 4.16838L3.62976 5.50737C3.68319 5.5594 3.72316 5.62365 3.74624 5.69457C3.76931 5.76549 3.77478 5.84096 3.76218 5.91447L3.43847 7.80526L5.13613 6.91259C5.20212 6.8779 5.27555 6.85977 5.3501 6.85977C5.42465 6.85977 5.49808 6.8779 5.56407 6.91259L7.26235 7.80526L6.9374 5.91447C6.92481 5.84096 6.93028 5.76549 6.95335 5.69457C6.97643 5.62365 7.0164 5.5594 7.06983 5.50737L8.44317 4.16899L6.54502 3.8931C6.47134 3.88233 6.40138 3.85382 6.34114 3.81004C6.28091 3.76625 6.23221 3.70849 6.19924 3.64173L5.3501 1.92138Z" fill="#57606A"/>
</svg>
