<svg width="11" height="11" viewBox="0 0 11 11" fill="none" xmlns="http://www.w3.org/2000/svg">
<path fill-rule="evenodd" clip-rule="evenodd" d="M1.84961 1.80276C1.84961 1.39625 2.01109 1.00639 2.29854 0.718948C2.58598 0.431504 2.97584 0.27002 3.38235 0.27002L8.74693 0.27002C8.86888 0.27002 8.98584 0.318465 9.07207 0.404698C9.15831 0.490931 9.20675 0.607889 9.20675 0.729841V8.39353C9.20675 8.51548 9.15831 8.63244 9.07207 8.71867C8.98584 8.80491 8.86888 8.85335 8.74693 8.85335H7.21419C7.09224 8.85335 6.97528 8.80491 6.88905 8.71867C6.80282 8.63244 6.75437 8.51548 6.75437 8.39353C6.75437 8.27158 6.80282 8.15462 6.88905 8.06839C6.97528 7.98216 7.09224 7.93371 7.21419 7.93371H8.28711V6.70752H3.38235C3.26162 6.70754 3.14358 6.7432 3.04304 6.81003C2.9425 6.87686 2.86392 6.97189 2.81717 7.0832C2.77042 7.19451 2.75758 7.31715 2.78025 7.43573C2.80291 7.55431 2.86009 7.66356 2.9446 7.74978C3.02996 7.83694 3.07721 7.95443 3.07595 8.07643C3.07468 8.19842 3.02501 8.31491 2.93785 8.40028C2.8507 8.48564 2.7332 8.53289 2.61121 8.53162C2.48922 8.53036 2.37273 8.48069 2.28736 8.39353C2.00639 8.10714 1.84918 7.72182 1.84961 7.32061V1.80276ZM8.28711 1.18966V5.78788H3.38235C3.16409 5.78788 2.95686 5.83325 2.76925 5.9154V1.80276C2.76925 1.64015 2.83385 1.48421 2.94882 1.36923C3.0638 1.25426 3.21975 1.18966 3.38235 1.18966H8.28711ZM3.6889 7.78044V9.773C3.6889 9.80146 3.69682 9.82936 3.71179 9.85358C3.72675 9.87779 3.74816 9.89736 3.77362 9.91009C3.79908 9.92282 3.82758 9.92821 3.85593 9.92565C3.88428 9.92309 3.91136 9.91269 3.93413 9.89561L4.82312 9.22918C4.84965 9.20928 4.88192 9.19853 4.91509 9.19853C4.94825 9.19853 4.98052 9.20928 5.00705 9.22918L5.89604 9.89561C5.91881 9.91269 5.94589 9.92309 5.97424 9.92565C6.00259 9.92821 6.03109 9.92282 6.05655 9.91009C6.08201 9.89736 6.10342 9.87779 6.11839 9.85358C6.13335 9.82936 6.14128 9.80146 6.14128 9.773V7.78044C6.14128 7.73979 6.12513 7.7008 6.09638 7.67205C6.06764 7.64331 6.02865 7.62716 5.988 7.62716H3.84217C3.80152 7.62716 3.76253 7.64331 3.73379 7.67205C3.70504 7.7008 3.6889 7.73979 3.6889 7.78044Z" fill="#57606A"/>
</svg>
