<svg width="11" height="11" viewBox="0 0 11 11" fill="none" xmlns="http://www.w3.org/2000/svg">
<path fill-rule="evenodd" clip-rule="evenodd" d="M5.71034 0.812777C5.54679 0.717924 5.36109 0.667969 5.17204 0.667969C4.98298 0.667969 4.79728 0.717924 4.63374 0.812777L1.41499 2.67965C1.25237 2.77397 1.11738 2.90937 1.02355 3.07227C0.929727 3.23518 0.880351 3.41988 0.880371 3.60788V7.34653C0.880371 7.7291 1.08392 8.08225 1.41499 8.27476L4.63374 10.1416C4.79728 10.2365 4.98298 10.2864 5.17204 10.2864C5.36109 10.2864 5.54679 10.2365 5.71034 10.1416L8.92909 8.27476C9.26016 8.08286 9.4637 7.7291 9.4637 7.34653V3.60788C9.4637 3.22531 9.26016 2.87216 8.92909 2.67965L5.71034 0.812777ZM5.0954 1.60857C5.1187 1.59512 5.14513 1.58804 5.17204 1.58804C5.19894 1.58804 5.22537 1.59512 5.24867 1.60857L8.08731 3.25473L5.17204 4.94565L2.25677 3.25473L5.0954 1.60857ZM1.80001 4.05298V7.34653C1.80001 7.40171 1.82883 7.45137 1.87665 7.47896L4.71222 9.1239V5.74206L1.80001 4.05298ZM5.63186 9.1239L8.46742 7.47896C8.49068 7.46554 8.51 7.44623 8.52345 7.42299C8.5369 7.39975 8.54401 7.37338 8.54406 7.34653V4.05298L5.63186 5.74206V9.1239Z" fill="#57606A"/>
</svg>
