<svg width="11" height="11" viewBox="0 0 11 11" fill="none" xmlns="http://www.w3.org/2000/svg">
<path fill-rule="evenodd" clip-rule="evenodd" d="M0.642822 1.64537C0.642822 1.52342 0.691268 1.40646 0.777501 1.32023C0.863734 1.23399 0.980691 1.18555 1.10264 1.18555H3.71014C4.4624 1.18555 5.13068 1.54728 5.54942 2.10581C5.7635 1.81969 6.04142 1.58751 6.36106 1.42774C6.68069 1.26798 7.03321 1.18505 7.39055 1.18555H9.99314C10.1151 1.18555 10.232 1.23399 10.3183 1.32023C10.4045 1.40646 10.453 1.52342 10.453 1.64537V8.08287C10.453 8.20482 10.4045 8.32178 10.3183 8.40801C10.232 8.49425 10.1151 8.54269 9.99314 8.54269H7.22992C7.04876 8.54269 6.86938 8.57837 6.70202 8.64769C6.53465 8.71702 6.38258 8.81863 6.25448 8.94672L5.87314 9.32745C5.78692 9.41356 5.67005 9.46193 5.5482 9.46193C5.42634 9.46193 5.30947 9.41356 5.22326 9.32745L4.84191 8.94672C4.71381 8.81863 4.56174 8.71702 4.39438 8.64769C4.22701 8.57837 4.04763 8.54269 3.86648 8.54269H1.10264C0.980691 8.54269 0.863734 8.49425 0.777501 8.40801C0.691268 8.32178 0.642822 8.20482 0.642822 8.08287V1.64537ZM6.01047 3.48466C6.01047 3.1188 6.15581 2.76793 6.41451 2.50923C6.67321 2.25053 7.02408 2.10519 7.38993 2.10519H9.5327V7.62305H7.2293C6.79401 7.62305 6.37097 7.74628 6.00802 7.97374L6.01047 3.48466ZM5.08838 7.97497L5.09083 4.86473L5.0896 3.48343C5.08928 3.11779 4.9438 2.76723 4.68513 2.50879C4.42647 2.25036 4.07578 2.10519 3.71014 2.10519H1.56247V7.62305H3.86586C4.29836 7.62303 4.72208 7.74501 5.08838 7.97497Z" fill="#57606A"/>
</svg>
