<svg width="11" height="11" viewBox="0 0 11 11" fill="none" xmlns="http://www.w3.org/2000/svg">
<g clip-path="url(#clip0_240_8948)">
<path fill-rule="evenodd" clip-rule="evenodd" d="M3.6908 2.37185C3.87019 2.19246 4.16106 2.19246 4.34045 2.37185C4.51985 2.55125 4.51985 2.84211 4.34045 3.02151L2.06215 5.2998L4.34045 7.57812C4.51985 7.75752 4.51985 8.04834 4.34045 8.22774C4.16106 8.40714 3.87019 8.40714 3.6908 8.22774L1.08767 5.62463C0.908276 5.44524 0.908276 5.15437 1.08767 4.97498L3.6908 2.37185ZM7.70918 2.37185C7.52978 2.19246 7.23897 2.19246 7.05957 2.37185C6.88015 2.55125 6.88015 2.84211 7.05957 3.02151L9.33782 5.2998L7.05957 7.57812C6.88015 7.75752 6.88015 8.04834 7.05957 8.22774C7.23897 8.40714 7.52978 8.40714 7.70918 8.22774L10.3123 5.62463C10.4917 5.44524 10.4917 5.15437 10.3123 4.97498L7.70918 2.37185Z" fill="#24292F"/>
</g>
<defs>
<clipPath id="clip0_240_8948">
<rect width="9.8" height="9.8" fill="white" transform="translate(0.800049 0.399902)"/>
</clipPath>
</defs>
</svg>
