<svg width="16" height="17" viewBox="0 0 16 17" fill="none" xmlns="http://www.w3.org/2000/svg">
<rect y="0.5" width="16" height="16" rx="3" fill="#13161B"/>
<path d="M6.30957 9.5625V7.03409H7.33798V11.3977H6.34082V10.6222H6.29537C6.19688 10.8665 6.03495 11.0663 5.80957 11.2216C5.58609 11.3769 5.31052 11.4545 4.98287 11.4545C4.69688 11.4545 4.44404 11.3911 4.22434 11.2642C4.00654 11.1354 3.83609 10.9489 3.71298 10.7045C3.58987 10.4583 3.52832 10.161 3.52832 9.8125V7.03409H4.55673V9.65341C4.55673 9.92992 4.63249 10.1496 4.784 10.3125C4.93552 10.4754 5.13438 10.5568 5.38059 10.5568C5.53211 10.5568 5.67889 10.5199 5.82093 10.446C5.96298 10.3722 6.07946 10.2623 6.17037 10.1165C6.26317 9.96875 6.30957 9.78409 6.30957 9.5625Z" fill="white"/>
<path d="M10.4523 11.4773C10.03 11.4773 9.65498 11.4063 9.32733 11.2642C9.00157 11.1222 8.74589 10.928 8.56028 10.6818C8.37657 10.4337 8.28566 10.1525 8.28755 9.83807C8.28566 9.59375 8.33869 9.36932 8.44664 9.16477C8.5546 8.96023 8.70043 8.78977 8.88414 8.65341C9.06975 8.51515 9.27619 8.42708 9.50346 8.3892V8.34943C9.20422 8.28314 8.9618 8.13068 8.77619 7.89205C8.59248 7.65152 8.50157 7.37405 8.50346 7.05966C8.50157 6.76042 8.5849 6.49337 8.75346 6.25852C8.92202 6.02367 9.15308 5.83902 9.44664 5.70455C9.7402 5.56818 10.0754 5.5 10.4523 5.5C10.8254 5.5 11.1578 5.56818 11.4495 5.70455C11.743 5.83902 11.9741 6.02367 12.1427 6.25852C12.3131 6.49337 12.3983 6.76042 12.3983 7.05966C12.3983 7.37405 12.3046 7.65152 12.1171 7.89205C11.9315 8.13068 11.6919 8.28314 11.3983 8.34943V8.3892C11.6256 8.42708 11.8302 8.51515 12.012 8.65341C12.1957 8.78977 12.3415 8.96023 12.4495 9.16477C12.5593 9.36932 12.6143 9.59375 12.6143 9.83807C12.6143 10.1525 12.5215 10.4337 12.3358 10.6818C12.1502 10.928 11.8946 11.1222 11.5688 11.2642C11.2449 11.4063 10.8728 11.4773 10.4523 11.4773ZM10.4523 10.6648C10.6701 10.6648 10.8595 10.6278 11.0205 10.554C11.1815 10.4782 11.3065 10.3722 11.3955 10.2358C11.4845 10.0994 11.53 9.94223 11.5319 9.7642C11.53 9.5786 11.4817 9.41477 11.387 9.27273C11.2942 9.12879 11.1663 9.0161 11.0035 8.93466C10.8425 8.85322 10.6588 8.8125 10.4523 8.8125C10.244 8.8125 10.0584 8.85322 9.89551 8.93466C9.73263 9.0161 9.60384 9.12879 9.50914 9.27273C9.41634 9.41477 9.37089 9.5786 9.37278 9.7642C9.37089 9.94223 9.41445 10.0994 9.50346 10.2358C9.59248 10.3703 9.71748 10.4754 9.87846 10.5511C10.0413 10.6269 10.2326 10.6648 10.4523 10.6648ZM10.4523 8.0142C10.6304 8.0142 10.7876 7.97822 10.9239 7.90625C11.0622 7.83428 11.1711 7.7339 11.2506 7.60511C11.3302 7.47633 11.3709 7.32765 11.3728 7.15909C11.3709 6.99242 11.3311 6.84659 11.2535 6.72159C11.1758 6.5947 11.0679 6.49716 10.9296 6.42898C10.7913 6.3589 10.6323 6.32386 10.4523 6.32386C10.2686 6.32386 10.1067 6.3589 9.96653 6.42898C9.82827 6.49716 9.72032 6.5947 9.64267 6.72159C9.56691 6.84659 9.52998 6.99242 9.53187 7.15909C9.52998 7.32765 9.56786 7.47633 9.64551 7.60511C9.72505 7.73201 9.83396 7.83239 9.97221 7.90625C10.1124 7.97822 10.2724 8.0142 10.4523 8.0142Z" fill="white"/>
</svg>
